PathFileType	4	(X/Y/Z)	C:/Users/opensim2020/Desktop/walking_exp_matlab/subject01_walking10_straight_04.trc	
DataRate	CameraRate	NumFrames	NumMarkers	Units	OrigDataRate	OrigDataStartFrame	OrigNumFrames	
100.00	100.00	8	43	mm	100.00	3822	274	
Frame#	Time	LFHD			RFHD			LBHD			RBHD			C7			T10			CLAV			STRN			RBAK			LSHO			LUPA			LELB			LFRM			LWRA			LWRB			LFIN			RSHO			RUPA			RELB			RFRM			RWRA			RWRB			RFIN			LASI			RASI			LPSI			RPSI			LTHI			LKNE			LTIB			LANK			LHEE			LTOE			RTHI			RKNE			RTIB			RANK			RHEE			RTOE			*39			*40			*41			*42			
		X1	Y1	Z1	X2	Y2	Z2	X3	Y3	Z3	X4	Y4	Z4	X5	Y5	Z5	X6	Y6	Z6	X7	Y7	Z7	X8	Y8	Z8	X9	Y9	Z9	X10	Y10	Z10	X11	Y11	Z11	X12	Y12	Z12	X13	Y13	Z13	X14	Y14	Z14	X15	Y15	Z15	X16	Y16	Z16	X17	Y17	Z17	X18	Y18	Z18	X19	Y19	Z19	X20	Y20	Z20	X21	Y21	Z21	X22	Y22	Z22	X23	Y23	Z23	X24	Y24	Z24	X25	Y25	Z25	X26	Y26	Z26	X27	Y27	Z27	X28	Y28	Z28	X29	Y29	Z29	X30	Y30	Z30	X31	Y31	Z31	X32	Y32	Z32	X33	Y33	Z33	X34	Y34	Z34	X35	Y35	Z35	X36	Y36	Z36	X37	Y37	Z37	X38	Y38	Z38	X39	Y39	Z39	X40	Y40	Z40	X41	Y41	Z41	X42	Y42	Z42	X43	Y43	Z43	

1	0.000	-985.29907	1034.49622	1669.70837	-1095.12146	1000.37115	1675.60413	-1015.87744	1151.46790	1640.10950	-1132.78235	1119.29358	1646.28040	-1052.81067	1199.73657	1438.47522	-1059.17822	1234.09595	1144.89197	-1058.89697	1054.96777	1372.18945	-1058.07642	1011.30603	1218.38745	-1129.87158	1255.93250	1243.41931	-894.90613	1110.12024	1400.79932	-807.93225	1128.46350	1215.94690	-803.46954	1134.68005	1065.02954	-778.10590	1086.73169	961.98828	-797.99451	999.72998	853.60156	-770.40515	1052.32532	844.36798	-762.70978	997.23163	779.40375	-1207.43286	1124.90027	1400.94202	-1306.48669	1187.43652	1201.91064	-1312.21619	1187.18604	1078.49988	-1349.68335	1164.12744	962.50409	-1341.51001	1084.77612	843.29126	-1377.94055	1130.85034	847.12091	-1378.74402	1097.68469	765.88092	-962.78943	1055.59021	938.55249	-1180.10364	1071.80103	937.68164	-1001.19977	1245.07922	951.69360	-1146.41833	1254.01221	950.49951	-911.93414	1056.87195	608.57831	-934.27612	1053.93506	474.77332	-927.73401	1101.70398	289.65137	-987.45642	1129.90942	75.06056	-1039.23926	1175.53113	46.36717	-982.46997	982.50629	39.40459	-1251.50586	1088.22437	606.74915	-1241.44519	1068.06702	450.09399	-1239.41858	1213.12537	349.95206	-1191.02612	1360.29846	207.17561	-1131.25073	1413.64905	205.63020	-1209.03174	1298.91199	80.79598	-1073.13892	1011.79028	1710.19434	-3101.81323	1973.18689	1023.58160	-3140.62061	2012.53845	1022.05402			 
2	0.010	-984.65308	1027.44946	1669.95837	-1094.61511	993.39337	1675.70679	-1015.04919	1144.52930	1640.66003	-1132.02271	1112.41602	1646.55139	-1051.66577	1193.14758	1438.92151	-1058.27588	1227.90503	1145.39392	-1058.02075	1048.57764	1372.45459	-1057.31091	1005.05603	1218.50769	-1128.56042	1249.75745	1243.84534	-894.03406	1103.17273	1401.16785	-807.00049	1120.31030	1216.43042	-802.41870	1125.00195	1065.11938	-777.08765	1075.80237	962.80969	-797.15607	987.94623	855.34344	-769.53693	1040.46106	845.57245	-761.66650	984.75580	781.40643	-1206.49280	1118.86804	1401.27087	-1305.01050	1182.73999	1202.32678	-1310.51221	1182.58313	1078.87183	-1347.89600	1160.10779	962.70990	-1339.82556	1081.09119	843.25842	-1375.81982	1127.18396	847.10986	-1377.02734	1094.33252	766.09204	-961.52075	1049.93823	938.83929	-1178.76819	1065.58118	938.25574	-1000.98724	1239.27930	952.01306	-1146.31396	1247.62512	951.31671	-911.52606	1053.37402	608.25940	-933.86786	1051.50049	474.42819	-927.48639	1100.75146	289.59436	-987.51361	1129.85767	75.14036	-1039.29883	1175.49072	46.48146	-982.45221	982.46198	39.41264	-1250.88110	1076.99194	608.43268	-1240.96143	1054.45532	452.05673	-1238.73157	1198.16821	350.03125	-1190.02515	1343.09766	205.08737	-1130.31885	1396.69971	201.99103	-1208.36511	1278.24451	80.52348	-1072.56372	1004.71576	1710.32056	-3101.95288	1973.11072	1023.91943	-3140.60522	2012.51038	1022.16608			 
3	0.020	-984.02142	1020.39880	1670.17578	-1094.12512	986.39630	1675.76306	-1014.40356	1137.44177	1641.02820	-1131.40662	1105.53625	1646.87939	-1050.57654	1186.55786	1439.34631	-1057.38904	1221.77026	1145.90796	-1057.34265	1042.14063	1372.71362	-1056.56018	998.86920	1218.66785	-1127.33862	1243.65088	1244.32581	-893.29315	1096.21033	1401.52441	-806.07892	1111.91846	1216.64429	-801.47107	1115.55432	1065.56628	-776.25372	1065.32983	963.63123	-796.29706	976.24847	857.16583	-768.78943	1028.60913	846.80426	-760.82196	972.25812	783.33569	-1205.68213	1112.80432	1401.58826	-1303.54651	1177.89856	1202.75659	-1308.97266	1178.13257	1079.28735	-1346.10364	1156.05566	962.91461	-1338.31482	1077.33582	843.29016	-1374.63013	1123.96875	847.50800	-1375.36987	1090.79395	766.07800	-960.30646	1044.18884	939.00342	-1177.45288	1059.52380	939.00494	-1000.77502	1233.45459	952.32104	-1146.19348	1241.16284	952.03076	-911.14716	1049.96814	607.87463	-933.54437	1049.31763	473.97321	-927.31110	1099.99670	289.59787	-987.26837	1129.88147	75.47984	-1039.65662	1175.23035	46.45568	-982.45148	982.35901	39.30946	-1250.64136	1066.11230	609.98962	-1240.41675	1041.20935	454.05353	-1237.83252	1183.11707	349.60010	-1188.83325	1325.21704	201.98761	-1129.33887	1379.06763	197.30478	-1207.81653	1256.07507	80.15009	-1072.18005	997.58038	1710.41504	-3101.89478	1973.08215	1023.44745	-3140.66797	2012.49146	1021.99500			 
4	0.030	-983.48676	1013.34131	1670.45227	-1093.58362	979.37671	1675.82898	-1013.77887	1130.44788	1641.50696	-1130.79858	1098.63647	1647.16980	-1049.58008	1180.03320	1439.78198	-1056.53076	1215.59790	1146.39954	-1056.79333	1035.67224	1372.90637	-1055.84009	992.62842	1218.83923	-1126.24988	1237.50330	1244.83240	-892.50482	1089.32715	1401.94080	-805.21033	1103.76880	1217.04407	-800.52191	1106.35400	1066.07397	-775.39734	1054.92151	964.53241	-795.52557	964.60785	859.07800	-768.02020	1016.86792	848.08234	-760.06836	959.78009	785.14563	-1204.85950	1106.75549	1401.94666	-1302.18848	1173.03979	1203.16101	-1307.43274	1173.66150	1079.69470	-1344.47473	1152.03198	963.17316	-1336.86731	1073.49719	843.39508	-1372.60730	1120.12671	847.46082	-1373.85632	1087.24475	766.19653	-959.21527	1039.30310	939.08429	-1176.25378	1053.58618	939.61572	-1000.60400	1227.67139	952.68030	-1146.12695	1234.84241	952.72156	-910.83820	1046.60400	607.55890	-933.17279	1047.38391	473.59332	-927.15668	1099.43372	289.59546	-987.81134	1129.54761	75.20702	-1039.46484	1175.28027	46.76306	-982.38336	982.35468	39.24865	-1250.12305	1055.59326	611.57239	-1239.78027	1028.34766	456.12494	-1237.03467	1168.09875	348.86157	-1187.62744	1306.77551	198.16147	-1128.20386	1360.74768	191.38908	-1207.31519	1233.18103	79.27469	-1071.69971	990.46448	1710.54089	-3101.90015	1973.12134	1023.31580	-3140.66699	2012.44702	1021.94769			 
5	0.040	-983.13098	1006.31915	1670.70667	-1093.13074	972.37225	1675.85632	-1013.24982	1123.45325	1641.99780	-1130.32764	1091.69043	1647.49719	-1048.62830	1173.45276	1440.22949	-1055.66736	1209.14258	1146.77612	-1056.23999	1029.25293	1373.13574	-1055.18262	986.40631	1219.08447	-1125.22339	1231.39148	1245.32043	-891.87579	1082.48413	1402.36719	-804.43506	1095.67761	1217.46350	-799.64789	1097.11548	1066.54834	-774.75110	1044.68103	965.45166	-794.75061	953.00720	861.04260	-767.64819	1005.31317	849.42737	-759.42352	947.38513	787.20502	-1204.09338	1100.66907	1402.24268	-1300.95911	1168.11157	1203.61157	-1305.86536	1168.98938	1080.04663	-1342.98096	1147.97168	963.49792	-1335.62061	1069.57751	843.55511	-1371.07043	1116.33997	847.66644	-1372.83899	1083.61047	766.48749	-958.20355	1033.11157	939.31616	-1174.83887	1047.61743	940.55280	-1000.38995	1221.75732	953.00830	-1146.08313	1228.58887	953.31860	-910.48560	1043.51392	607.20093	-932.58301	1045.71533	473.31638	-926.98035	1099.08264	289.61716	-987.89172	1129.56494	75.24513	-1039.56873	1175.26135	46.88042	-982.36902	982.27594	39.21546	-1249.71484	1045.41760	613.32623	-1239.12634	1015.71460	458.25827	-1236.05005	1152.83740	347.52325	-1186.49402	1287.89368	193.69011	-1127.40332	1341.81177	184.89432	-1206.83130	1209.49182	78.08532	-1071.35608	983.36786	1710.64014	-3101.87256	1973.16736	1023.46075	-3140.54468	2012.58252	1022.09381			 
6	0.050	-982.79816	999.28113	1670.91736	-1092.84961	965.33234	1675.94446	-1012.84668	1116.53406	1642.46460	-1129.87378	1084.75659	1647.75879	-1047.75488	1166.89331	1440.64685	-1054.83069	1203.25146	1147.34338	-1055.53101	1022.84778	1373.41577	-1054.53894	980.15930	1219.26477	-1124.24304	1225.21899	1245.82166	-891.21490	1075.62329	1402.81360	-803.69763	1087.78894	1217.95276	-798.96826	1087.78979	1066.93982	-774.13678	1034.37000	966.38654	-794.14404	941.55762	863.09863	-767.13318	993.75507	850.78271	-758.47870	935.33453	789.61310	-1203.39819	1094.56824	1402.62634	-1299.86841	1163.21765	1204.09412	-1304.61023	1164.41394	1080.50586	-1341.60242	1143.75134	963.72729	-1334.47192	1065.56775	843.66058	-1369.75488	1112.67419	847.84320	-1371.18677	1079.92786	766.59698	-957.36804	1027.14343	939.33087	-1174.04004	1041.41357	941.34546	-1000.24908	1215.93677	953.31097	-1145.97327	1222.36670	953.83533	-910.08813	1040.56799	606.96466	-932.17950	1044.09387	472.96118	-926.77307	1098.74890	289.61926	-987.69830	1129.70105	75.34207	-1039.52454	1175.32654	47.11357	-982.42560	982.31378	39.26098	-1249.49048	1035.33301	615.06000	-1238.37305	1003.36176	460.34314	-1235.21631	1137.63696	345.95660	-1185.34973	1268.24768	188.28090	-1126.17432	1321.98535	177.02907	-1206.55273	1185.28174	76.45713	-1071.01379	976.29053	1710.76270	-3101.99829	1973.09460	1023.44348	-3140.71973	2012.52722	1022.05310			 
7	0.060	-982.57910	992.18439	1671.04065	-1092.60620	958.36346	1675.99780	-1012.50201	1109.61292	1642.91687	-1129.55603	1077.83325	1648.02686	-1046.96057	1160.30640	1441.06323	-1053.97510	1197.06860	1147.77747	-1054.99597	1016.37091	1373.68250	-1053.98767	973.90106	1219.45630	-1123.25574	1219.02905	1246.28101	-890.56616	1068.84534	1403.30029	-802.99377	1079.87683	1218.40613	-798.35120	1078.63916	1067.33899	-773.63617	1024.06421	967.35785	-793.58197	930.14307	865.19336	-766.96484	982.34021	852.22449	-758.13141	923.23529	791.62927	-1202.78992	1088.41772	1402.88220	-1298.78479	1158.10889	1204.49255	-1303.26013	1159.64856	1080.83923	-1340.39636	1139.46069	964.10938	-1333.44556	1061.45703	843.82172	-1368.58350	1108.80200	848.08215	-1369.74500	1076.11755	766.52820	-956.45050	1021.45233	939.41241	-1173.24438	1035.25183	942.21576	-1000.01337	1210.04028	953.58044	-1145.82739	1216.13110	954.36731	-909.68359	1037.62756	606.64746	-931.67157	1042.67078	472.65753	-926.54510	1098.30078	289.68433	-987.91077	1129.53259	75.27072	-1039.57739	1175.30786	47.24571	-982.18744	982.25146	39.22523	-1249.20789	1025.52002	616.79639	-1237.56799	991.35168	462.33389	-1234.21460	1122.24573	343.85825	-1184.18860	1248.07971	182.30078	-1124.87927	1301.10779	168.82977	-1206.43811	1160.49646	74.66764	-1070.76843	969.18500	1710.86938	-3101.91650	1973.15271	1023.57727	-3140.66724	2012.47192	1021.99432			 
8	0.070	-982.33490	985.31708	1671.30347	-1092.39600	951.40332	1676.01892	-1012.26489	1102.70923	1643.31067	-1129.31201	1070.94958	1648.21313	-1046.23560	1153.69019	1441.49158	-1053.13428	1190.47180	1148.09045	-1054.63647	1009.91180	1373.90662	-1053.37695	967.60425	1219.56128	-1122.34363	1212.84497	1246.71704	-890.04889	1061.96582	1403.75183	-802.46881	1072.10852	1218.90552	-797.70508	1069.45142	1067.87158	-773.13116	1014.13379	968.35712	-793.17908	918.83221	867.37805	-766.59564	971.07782	853.75391	-757.80420	910.98364	793.75879	-1202.19861	1082.22717	1403.13171	-1297.75134	1152.90320	1204.83545	-1302.27466	1154.91589	1081.27881	-1339.22119	1135.01807	964.25433	-1332.40173	1057.22571	843.90039	-1367.09412	1104.50769	848.06909	-1368.75549	1072.14490	766.55750	-955.86139	1015.65613	939.40991	-1172.46643	1029.19080	942.84570	-999.81415	1204.17932	953.88770	-1145.68970	1210.08093	954.84113	-909.41901	1035.00720	606.45880	-931.21881	1041.20728	472.43774	-926.32385	1097.53210	289.67160	-987.89160	1129.55383	75.33524	-1039.56238	1175.27759	47.45586	-982.09326	982.25336	39.16129	-1248.46338	1015.89301	618.29523	-1236.62366	979.74207	464.11041	-1233.25122	1106.82324	341.43848	-1183.23621	1227.41248	175.92175	-1123.70203	1279.89087	159.84685	-1206.64368	1135.03601	72.51189	-1070.64685	962.15057	1710.95129	-3101.90698	1973.13110	1023.39429	-3140.69727	2012.48755	1021.95618			 
